<?xml version="1.0" encoding="utf-8"?>
<!-- Svg Vector Icons : http://www.onlinewebfonts.com/icon -->
<!DOCTYPE svg PUBLIC "-//W3C//DTD SVG 1.1//EN" "http://www.w3.org/Graphics/SVG/1.1/DTD/svg11.dtd">
<svg version="1.1" xmlns="http://www.w3.org/2000/svg" xmlns:xlink="http://www.w3.org/1999/xlink" x="0px" y="0px" viewBox="0 0 1000 1000" enable-background="new 0 0 1000 1000" xml:space="preserve">
<metadata> Svg Vector Icons : http://www.onlinewebfonts.com/icon </metadata>
<g><g><g><path d="M805.7,276.3c-42.5-75.9-126.3-119.5-216-105.1c-35.2-74-109-121-191.9-121c-117.4,0-212.9,95.5-212.9,212.9c0,4.8,0.2,9.8,0.7,15C84.3,301.2,10,392.6,10,497.9c0,124.4,101.3,225.7,225.7,225.7h178.4v-37.3H235.7c-103.9,0-188.5-84.5-188.5-188.4c0-93,69.5-173.1,161.6-186.3c4.9-0.7,9.4-3.4,12.3-7.4c2.9-4,4.2-9,3.4-14c-1.6-10.1-2.4-19-2.4-27.2c0-96.8,78.8-175.6,175.6-175.6c72.7,0,136.9,43.8,163.4,111.7c3.4,8.6,12.5,13.4,21.6,11.4c81.9-18.9,158.7,20.6,194.2,91.1c2.8,5.5,8,9.2,14,10.1c92.2,13.1,161.7,93.2,161.7,186.3c0,103.9-84.5,188.4-188.4,188.4H526.8v37.3h237.5C888.7,723.6,990,622.4,990,498C990,389.6,911.4,296,805.7,276.3z"/><path d="M559.2,810.9l-73.9,73.8v-516c0-10.5-8.5-19-19-19c-10.6,0-19.1,8.5-19.1,19v516.6l-74.5-74.5c-7.4-7.5-19.4-7.5-26.9,0c-7.5,7.4-7.5,19.5,0,27l106.3,106.3c3.7,3.7,8.6,5.6,13.4,5.6l0.3,0c0.2,0,0.2,0,0.2,0c5,0,9.9-1.9,13.6-5.6l106.3-106.3c7.5-7.5,7.5-19.5,0-27C578.7,803.5,566.6,803.5,559.2,810.9z"/></g></g><g></g><g></g><g></g><g></g><g></g><g></g><g></g><g></g><g></g><g></g><g></g><g></g><g></g><g></g><g></g></g>
</svg>