<?xml version="1.0" encoding="utf-8"?>
<!-- Svg Vector Icons : http://www.onlinewebfonts.com/icon -->
<!DOCTYPE svg PUBLIC "-//W3C//DTD SVG 1.1//EN" "http://www.w3.org/Graphics/SVG/1.1/DTD/svg11.dtd">
<svg version="1.1" xmlns="http://www.w3.org/2000/svg" xmlns:xlink="http://www.w3.org/1999/xlink" x="0px" y="0px" viewBox="0 0 1000 1000" enable-background="new 0 0 1000 1000" xml:space="preserve">
<metadata> Svg Vector Icons : http://www.onlinewebfonts.com/icon </metadata>
<g><g transform="translate(0.000000,512.000000) scale(0.100000,-0.100000)"><path d="M1797.3,4997.3c-222.5-40.3-387.4-95.9-592.6-201.4c-517.8-264.7-891.8-728.8-1052.9-1317.5l-51.8-186v-3174v-3174l51.8-191.8c209-761.4,811.2-1336.7,1568.8-1499.7c153.4-32.6,333.7-34.5,3279.5-34.5c2945.7,0,3126,1.9,3279.5,34.5c757.5,163,1359.7,738.3,1568.8,1499.7l51.8,191.8v3174v3174l-51.8,191.8c-207.1,751.8-790.1,1315.6-1549.6,1497.8c-136.2,32.6-327.9,34.5-3250.7,38.4C2485.8,5024.1,1916.2,5020.3,1797.3,4997.3z M7995.6,4625.2c247.4-23,412.3-72.9,629-184.1c216.7-113.1,379.7-245.5,525.5-431.5c212.9-268.5,324.1-546.6,356.7-895.6c26.9-278.1,26.9-5713.2,0-5991.2c-32.6-349.1-143.8-627.1-356.7-895.6c-145.8-186-308.8-318.3-525.5-431.5c-216.7-111.2-381.7-161.1-629-184.1c-278.1-26.9-5713.2-26.9-5991.2,0c-247.4,23-412.3,72.9-629,184.1c-216.7,113.2-379.7,245.5-525.5,431.5c-212.9,268.5-324.1,546.6-356.7,895.6c-26.8,278.1-26.8,5713.2,0,5991.2c32.6,349,143.8,627.1,356.7,895.6c270.4,343.3,690.4,571.5,1121.9,613.7C2215.3,4646.3,7750.1,4648.3,7995.6,4625.2z"/><path d="M4290.4,2063.1c-26.8-3.8-95.9-17.3-153.4-28.8c-293.4-59.5-510.1-299.2-433.4-479.5c32.6-74.8,76.7-105.5,205.2-143.8c55.6-17.3,105.5-46,122.7-72.9c17.3-24.9,38.4-120.8,49.9-214.8c23-186,13.4-717.3-15.3-792.1c-17.3-44.1-19.2-42.2-97.8,46c-166.9,189.9-537,824.7-677,1160.3c-76.7,184.1-140,260.8-272.3,326l-120.8,59.5l-594.5-5.8c-527.4-5.8-600.3-9.6-659.7-40.3c-149.6-78.6-205.2-232.1-145.8-408.5c38.4-118.9,404.7-811.2,621.4-1177.5c485.2-824.7,974.3-1449.9,1344.4-1724.1c166.9-124.7,379.7-237.8,560-297.3c253.1-84.4,460.3-107.4,985.8-107.4c429.6,0,487.1,3.8,560,36.4c117,53.7,172.6,149.6,187.9,327.9c13.4,168.8,38.3,255.1,78.6,289.6c25,21.1,76.7-23,349-303c343.3-349,458.4-439.2,655.9-504.4c117-40.3,157.3-42.2,661.7-40.3c602.2,3.8,721.1,17.2,849.6,105.5c130.4,88.2,163,143.8,172.6,289.6c7.7,111.2,1.9,140-51.8,245.5c-99.7,199.5-243.5,372.1-638.6,761.4c-270.4,266.6-379.7,385.5-379.7,416.2c0,24.9,80.5,147.7,186,287.7c747.9,981.9,901.4,1242.8,884.1,1511.2c-9.6,143.8-61.4,222.5-189.9,276.2c-86.3,38.4-126.6,40.3-778.6,40.3c-627.1,0-694.2-3.8-765.2-36.4c-113.2-51.8-188-153.4-303-414.2c-170.7-391.2-439.2-840-627.1-1052.9c-71-80.5-84.4-88.2-95.9-57.5c-7.7,21.1-9.6,308.8-3.8,640.5c13.4,677,1.9,761.4-113.2,893.7c-140,159.2-331.8,201.4-903.3,197.5C4520.5,2070.7,4317.3,2066.9,4290.4,2063.1z M5257,1654.6c40.3-9.6,84.4-28.8,95.9-40.3c15.3-15.3,19.2-203.3,13.4-657.8c-7.7-728.8,3.8-809.3,128.5-955.1c120.8-140,239.7-164.9,402.7-82.5C6139.2,37.8,6540,611.3,6820,1230.7c53.7,120.8,105.5,234,115.1,249.3c13.4,24.9,105.5,28.8,604.1,34.5l588.7,3.8l-11.5-42.2c-42.2-143.8-322.2-565.8-680.8-1022.2c-324.1-414.2-383.6-521.7-383.6-686.6c1.9-157.3,53.7-228.2,487.1-655.9c281.9-280,437.3-448.8,508.2-554.2c90.1-136.2,95.9-155.4,67.1-170.7c-19.2-11.5-264.7-19.2-581.1-21.1c-692.3-1.9-619.5-32.6-1075.9,431.5c-362.5,368.2-433.4,418.1-600.3,420c-253.2,0-446.8-222.5-485.2-556.2l-13.4-120.8l-452.6,11.5c-398.9,9.6-473.7,15.4-636.7,57.5C3741.9-1252.8,3350.7-894.2,2765.8-6.3c-303,462.2-853.4,1442.2-853.4,1524.7c0,24.9,861.1,26.8,924.4,1.9c30.7-11.5,61.4-57.5,99.7-147.7c141.9-337.5,467.9-909,673.2-1177.5c105.5-136.2,243.6-264.7,326-299.2c84.4-34.5,226.3-34.5,293.4,0c117,61.4,193.7,197.5,232.1,416.2c32.6,187.9,26.8,828.5-7.7,995.3c-30.7,141.9-82.5,264.7-132.3,304.9c-49.9,42.2-36.4,57.5,61.4,65.2C4530.1,1692.9,5176.4,1675.7,5257,1654.6z"/></g></g>
</svg>