<?xml version="1.0" encoding="utf-8"?>
<!-- Svg Vector Icons : http://www.onlinewebfonts.com/icon -->
<!DOCTYPE svg PUBLIC "-//W3C//DTD SVG 1.1//EN" "http://www.w3.org/Graphics/SVG/1.1/DTD/svg11.dtd">
<svg version="1.1" xmlns="http://www.w3.org/2000/svg" xmlns:xlink="http://www.w3.org/1999/xlink" x="0px" y="0px" viewBox="0 0 1000 1000" enable-background="new 0 0 1000 1000" xml:space="preserve">
<metadata> Svg Vector Icons : http://www.onlinewebfonts.com/icon </metadata>
<g><path d="M702.9,734.2H281.7c-10.9,0-19.7,8.8-19.7,19.7c0,10.9,8.8,19.7,19.7,19.7h421.2c10.9,0,19.7-8.8,19.7-19.7C722.5,743,713.7,734.2,702.9,734.2z"/><path d="M702.9,596.4H281.7c-10.9,0-19.7,8.8-19.7,19.7s8.8,19.7,19.7,19.7h421.2c10.9,0,19.7-8.8,19.7-19.7S713.7,596.4,702.9,596.4z"/><path d="M702.9,458.6H281.7c-10.9,0-19.7,8.8-19.7,19.7s8.8,19.7,19.7,19.7h421.2c10.9,0,19.7-8.8,19.7-19.7S713.7,458.6,702.9,458.6z"/><path d="M281.7,360.2h190.1c10.9,0,19.7-8.8,19.7-19.7c0-10.9-8.8-19.7-19.7-19.7H281.7c-10.9,0-19.7,8.8-19.7,19.7C262,351.4,270.8,360.2,281.7,360.2z"/><path d="M876.8,160.3L739.6,25.1c-9.9-9.7-22.9-15.1-36.8-15.1c0,0,0,0,0,0H160c-28.9,0-52.4,23.5-52.4,52.4v875.2c0,28.9,23.5,52.4,52.4,52.4h680c28.9,0,52.4-23.5,52.4-52.4v-740C892.4,183.7,886.7,170.1,876.8,160.3z M838.6,177.9H722.7l-0.1-114.4L838.6,177.9z M840,950.6H160c-7.2,0-13-5.8-13-13V62.4c0-7.2,5.8-13,13-13h523.2l0.2,148.2c0,10.9,8.8,19.7,19.7,19.7h150v720.4C853.1,944.8,847.2,950.6,840,950.6z"/></g>
</svg>